<svg xmlns="http://www.w3.org/2000/svg" width="2560" height="1600" viewBox="0 0 2560 1600">
  <metadata><?xpacket begin="﻿" id="W5M0MpCehiHzreSzNTczkc9d"?>
<x:xmpmeta xmlns:x="adobe:ns:meta/" x:xmptk="Adobe XMP Core 5.6-c138 79.159824, 2016/09/14-01:09:01        ">
   <rdf:RDF xmlns:rdf="http://www.w3.org/1999/02/22-rdf-syntax-ns#">
      <rdf:Description rdf:about=""/>
   </rdf:RDF>
</x:xmpmeta>
                                                                                                    
                                                                                                    
                                                                                                    
                                                                                                    
                                                                                                    
                                                                                                    
                                                                                                    
                                                                                                    
                                                                                                    
                                                                                                    
                                                                                                    
                                                                                                    
                                                                                                    
                                                                                                    
                                                                                                    
                                                                                                    
                                                                                                    
                                                                                                    
                                                                                                    
                                                                                                    
                           
<?xpacket end="w"?></metadata>
<defs>
    <style>
      .cls-1 {
        fill: #24254c;
      }

      .cls-1, .cls-2, .cls-3, .cls-4, .cls-5, .cls-6 {
        fill-rule: evenodd;
      }

      .cls-2, .cls-3, .cls-4, .cls-5, .cls-6 {
        fill: #ecebe8;
      }

      .cls-2, .cls-7 {
        opacity: 0.8;
      }

      .cls-3 {
        opacity: 0.6;
      }

      .cls-4 {
        opacity: 0.4;
      }

      .cls-5 {
        opacity: 0.2;
      }

      .cls-6 {
        opacity: 0.15;
      }

      .cls-7, .cls-8 {
        fill: #363636;
      }

      .cls-9 {
        fill: #252525;
      }

      .cls-10 {
        fill: #f2e19e;
      }

      .cls-11 {
        font-size: 52px;
        font-family: "Geoma Light Demo";
      }

      .cls-12 {
        font-size: 90px;
        font-family: "Hijrnotes PERSONAL USE ONLY";
      }
    </style>
  </defs>
  <g id="Artboard_1" data-name="Artboard 1">
    <path class="cls-1" d="M-8,0H2560V1597H-8V0ZM1267,500c160.71,0,291,130.285,291,291s-130.29,291-291,291S976,951.715,976,791,1106.29,500,1267,500Z"/>
    <g id="moon">
      <path class="cls-2" d="M1236.5,470.568a326.37,326.37,0,0,0-183.33,56,328.878,328.878,0,0,0-118.814,144.28,327.509,327.509,0,0,0,30.236,311.007,328.857,328.857,0,0,0,144.278,118.8,327.487,327.487,0,0,0,310.96-30.23,328.761,328.761,0,0,0,118.81-144.279,327.559,327.559,0,0,0-30.23-311.007,328.917,328.917,0,0,0-144.28-118.808,325.8,325.8,0,0,0-127.63-25.768m0,655.862a326.43,326.43,0,0,1-183.33-56A328.87,328.87,0,0,1,934.356,926.151a327.509,327.509,0,0,1,30.236-311.007A328.9,328.9,0,0,1,1108.87,496.336a327.462,327.462,0,0,1,310.96,30.233,328.768,328.768,0,0,1,118.81,144.28,327.559,327.559,0,0,1-30.23,311.007,328.872,328.872,0,0,1-144.28,118.8,325.771,325.771,0,0,1-127.63,25.77m0-656.43C1055.07,470,908,617.074,908,798.5S1055.07,1127,1236.5,1127,1565,979.926,1565,798.5,1417.93,470,1236.5,470"/>
      <path id="shape3" class="cls-3" d="M1236.5,370.741a425.7,425.7,0,0,0-239.143,73.048,429.018,429.018,0,0,0-154.978,188.2,427.2,427.2,0,0,0,39.44,405.68,429.063,429.063,0,0,0,188.191,154.98,427.1,427.1,0,0,0,405.63-39.44,429.022,429.022,0,0,0,154.98-188.2,427.207,427.207,0,0,0-39.44-405.681,429.038,429.038,0,0,0-188.19-154.975,425.062,425.062,0,0,0-166.49-33.612m0,855.519a425.625,425.625,0,0,1-239.143-73.05,429.032,429.032,0,0,1-154.978-188.2,427.207,427.207,0,0,1,39.44-405.681A429,429,0,0,1,1070.01,404.353a427.133,427.133,0,0,1,405.63,39.436,429.007,429.007,0,0,1,154.98,188.2,427.2,427.2,0,0,1-39.44,405.68,429.1,429.1,0,0,1-188.19,154.98,425.114,425.114,0,0,1-166.49,33.61m0-856.26C999.846,370,808,561.846,808,798.5S999.846,1227,1236.5,1227,1665,1035.15,1665,798.5,1473.15,370,1236.5,370"/>
      <path id="shape4" class="cls-4" d="M1236.5,270.914a525.07,525.07,0,0,0-294.952,90.1A529.129,529.129,0,0,0,750.4,593.131a526.914,526.914,0,0,0,48.644,500.359,529.122,529.122,0,0,0,232.114,191.14,526.83,526.83,0,0,0,500.29-48.64,529.216,529.216,0,0,0,191.15-232.12,526.859,526.859,0,0,0-48.65-500.358A529.111,529.111,0,0,0,1441.84,312.37a524.235,524.235,0,0,0-205.34-41.456m0,1055.176a525.1,525.1,0,0,1-294.952-90.1A529.107,529.107,0,0,1,750.4,1003.87a526.908,526.908,0,0,1,48.644-500.358A529.112,529.112,0,0,1,1031.16,312.37a526.83,526.83,0,0,1,500.29,48.64A529.239,529.239,0,0,1,1722.6,593.131a526.864,526.864,0,0,1-48.65,500.359,529.121,529.121,0,0,1-232.11,191.14,524.2,524.2,0,0,1-205.34,41.46m0-1056.09C944.618,270,708,506.617,708,798.5S944.618,1327,1236.5,1327,1765,1090.38,1765,798.5,1528.38,270,1236.5,270"/>
      <path id="shape5" class="cls-5" d="M1236.5,171.087A624.417,624.417,0,0,0,885.739,278.23,629.242,629.242,0,0,0,658.425,554.273,626.574,626.574,0,0,0,716.273,1149.3a629.159,629.159,0,0,0,276.033,227.31,626.564,626.564,0,0,0,594.954-57.84,629.333,629.333,0,0,0,227.32-276.04A626.6,626.6,0,0,0,1756.73,447.7a629.239,629.239,0,0,0-276.04-227.309,623.408,623.408,0,0,0-244.19-49.3m0,1254.823a624.46,624.46,0,0,1-350.761-107.14,629.321,629.321,0,0,1-227.314-276.04A626.613,626.613,0,0,1,716.273,447.7,629.229,629.229,0,0,1,992.306,220.387,626.539,626.539,0,0,1,1587.26,278.23a629.254,629.254,0,0,1,227.32,276.043,626.557,626.557,0,0,1-57.85,595.027,629.168,629.168,0,0,1-276.04,227.31,623.283,623.283,0,0,1-244.19,49.3m0-1255.91C889.389,170,608,451.389,608,798.5S889.389,1427,1236.5,1427,1865,1145.61,1865,798.5,1583.61,170,1236.5,170"/>
      <path id="shape6" class="cls-6" d="M1236.5,71.26A723.761,723.761,0,0,0,829.93,195.451,729.358,729.358,0,0,0,566.449,515.414,726.291,726.291,0,0,0,633.5,1205.12a729.232,729.232,0,0,0,319.952,263.47,726.252,726.252,0,0,0,689.617-67.04,729.356,729.356,0,0,0,263.48-319.96,726.329,726.329,0,0,0-67.05-689.71A729.381,729.381,0,0,0,1519.55,128.4,722.631,722.631,0,0,0,1236.5,71.26m0,1454.48a723.91,723.91,0,0,1-406.57-124.19,729.394,729.394,0,0,1-263.481-319.96A726.313,726.313,0,0,1,633.5,391.88,729.353,729.353,0,0,1,953.453,128.4a726.194,726.194,0,0,1,689.617,67.047,729.32,729.32,0,0,1,263.48,319.963,726.307,726.307,0,0,1-67.05,689.706,729.261,729.261,0,0,1-319.95,263.47,722.6,722.6,0,0,1-283.05,57.15M1236.5,70C834.161,70,508,396.16,508,798.5S834.161,1527,1236.5,1527,1965,1200.84,1965,798.5,1638.84,70,1236.5,70"/>
    </g>
    <rect class="cls-7" x="92" y="748" width="230" height="668"/>
    <rect id="shadowone" class="cls-7" x="-138" y="524" width="230" height="668"/>
    <rect id="shadowtwo" class="cls-7" x="2089" y="524" width="230" height="668"/>
    <rect id="shadowthree" class="cls-7" x="2319" y="661" width="230" height="668"/>
    <rect class="cls-8" x="711" y="1409" width="238" height="189"/>
    <rect class="cls-9" x="240" y="1269" width="140" height="328"/>
    <rect class="cls-9" x="380" y="1052" width="170" height="545"/>
    <rect class="cls-9" x="710" y="1401" width="113" height="193"/>
    <rect class="cls-9" x="465" y="1310" width="245" height="284"/>
    <rect class="cls-9" x="824" y="1253" width="189" height="344"/>
    <rect class="cls-9" x="1013" y="1148" width="237" height="449"/>
    <rect class="cls-9" x="1250" y="1324" width="419" height="268"/>
    <rect class="cls-9" x="1615" y="1033" width="216" height="565"/>
    <rect class="cls-9" x="1831" y="1154" width="203" height="444"/>
    <rect class="cls-9" x="2023" y="774" width="260" height="823"/>
    <rect class="cls-9" x="2283" y="1063" width="273" height="533"/>
    <rect class="cls-9" x="1046" y="1082" width="38" height="151"/>
    <rect class="cls-9" x="121" y="832" width="94" height="86"/>
    <rect class="cls-9" x="-2" y="870" width="245" height="727"/>
    <rect class="cls-9" x="823" y="1405" width="235" height="184"/>
    <rect class="cls-9" x="911" y="1253" width="224" height="152"/>
    <rect class="cls-10" x="2063" y="814" width="70" height="104"/>
    <rect id="Rectangle_20_copy" data-name="Rectangle 20 copy" class="cls-10" x="2169" y="814" width="70" height="104"/>
    <rect id="Rectangle_20_copy_2" data-name="Rectangle 20 copy 2" class="cls-10" x="2169" y="959" width="70" height="104"/>
    <rect id="Rectangle_20_copy_3" data-name="Rectangle 20 copy 3" class="cls-10" x="1044" y="1169" width="70" height="104"/>
    <rect id="Rectangle_20_copy_4" data-name="Rectangle 20 copy 4" class="cls-10" x="1150" y="1169" width="70" height="104"/>
    <rect id="Rectangle_20_copy_5" data-name="Rectangle 20 copy 5" class="cls-10" x="1645" y="1063" width="70" height="104"/>
    <rect id="Rectangle_20_copy_7" data-name="Rectangle 20 copy 7" class="cls-10" x="252" y="1433" width="70" height="104"/>
    <rect id="Rectangle_20_copy_8" data-name="Rectangle 20 copy 8" class="cls-10" x="359" y="1433" width="70" height="104"/>
    <rect id="Rectangle_20_copy_9" data-name="Rectangle 20 copy 9" class="cls-10" x="145" y="1433" width="70" height="104"/>
    <rect id="Rectangle_20_copy_10" data-name="Rectangle 20 copy 10" class="cls-10" x="145" y="1033" width="70" height="104"/>
    <rect id="Rectangle_20_copy_11" data-name="Rectangle 20 copy 11" class="cls-10" x="145" y="1161" width="70" height="104"/>
    <rect id="Rectangle_20_copy_13" data-name="Rectangle 20 copy 13" class="cls-10" x="1545" y="1433" width="70" height="104"/>
    <rect id="Rectangle_20_copy_14" data-name="Rectangle 20 copy 14" class="cls-10" x="1651" y="1433" width="70" height="104"/>
    <rect id="Rectangle_20_copy_15" data-name="Rectangle 20 copy 15" class="cls-10" x="1757" y="1433" width="70" height="104"/>
    <rect id="Rectangle_20_copy_17" data-name="Rectangle 20 copy 17" class="cls-10" x="2063" y="1096" width="70" height="104"/>
    <rect id="Rectangle_20_copy_18" data-name="Rectangle 20 copy 18" class="cls-10" x="2292" y="1253" width="70" height="104"/>
    <rect id="Rectangle_20_copy_19" data-name="Rectangle 20 copy 19" class="cls-10" x="2398" y="1253" width="70" height="104"/>
    <rect id="Rectangle_20_copy_20" data-name="Rectangle 20 copy 20" class="cls-10" x="2504" y="1383" width="70" height="104"/>
    <rect class="cls-9" x="1217" y="1324" width="113" height="209"/>
    <text id="market" class="cls-11" x="1312.038" y="775.538">market</text>
    <text id="moonlight" class="cls-12" x="990.564" y="762.035">moonlight</text>
  </g>
</svg>
